<svg version="1.1" id="Layer_1" xmlns="http://www.w3.org/2000/svg" xmlns:xlink="http://www.w3.org/1999/xlink" x="0px" y="0px"
	 width="100%" viewBox="0 0 128 128" enable-background="new 0 0 128 128" xml:space="preserve">
<path fill="#000000" opacity="1.000000" stroke="none" 
	d="
M1.000000,78.000000 
	C1.000000,70.645752 1.000000,63.291500 1.379514,55.339699 
	C2.173427,52.689030 2.457497,50.599297 3.022457,48.588478 
	C8.458702,29.239712 21.024118,15.706545 38.729271,7.260477 
	C50.349266,1.717270 62.954266,0.820464 75.891327,2.894292 
	C96.713730,6.232151 111.374176,18.025341 121.670845,35.574112 
	C125.122849,41.457409 126.613075,48.491772 129.000000,55.000000 
	C129.000000,62.354252 129.000000,69.708504 128.620636,77.660126 
	C123.706573,100.883110 111.332085,117.244354 89.696304,125.994072 
	C81.108208,129.467178 80.295967,128.513687 79.911568,119.125473 
	C79.571251,110.813828 82.551704,101.901352 75.564781,94.524384 
	C76.595032,94.248245 77.036697,94.033676 77.482780,94.024086 
	C103.566116,93.462990 111.599663,65.064316 100.505859,48.897240 
	C99.506203,47.440430 98.770927,44.989681 99.281715,43.456577 
	C101.029060,38.211987 99.757454,33.619690 97.239250,28.457699 
	C93.228462,30.301487 89.338120,32.074234 85.461754,33.877052 
	C82.560463,35.226387 79.940727,35.771214 76.373657,35.304985 
	C68.856926,34.322529 61.122185,35.017376 53.476940,35.003372 
	C51.186710,34.999176 48.670048,35.527004 46.651943,34.765190 
	C41.937569,32.985561 37.462662,30.571564 32.733482,28.340279 
	C30.322849,33.718704 28.820417,38.318947 30.821070,43.533295 
	C31.302017,44.786797 30.793795,47.008118 29.902716,48.101738 
	C25.080318,54.020245 24.777481,60.876888 24.958075,68.015007 
	C25.218384,78.303947 32.557789,88.795303 42.320404,91.938728 
	C46.070061,93.146057 50.009342,93.764442 53.795990,94.635941 
	C52.532887,97.175354 51.389736,99.780785 49.956638,102.215553 
	C49.312008,103.310745 48.238693,104.533257 47.102959,104.898048 
	C39.792084,107.246231 35.402420,105.609886 30.537884,99.033241 
	C26.451586,93.508743 23.285816,91.771469 19.762735,92.599762 
	C22.784481,97.134888 26.142515,101.711205 28.984901,106.588051 
	C31.238808,110.455208 34.397930,112.526535 38.646378,112.965591 
	C42.345047,113.347832 46.080742,113.371819 49.999931,113.563911 
	C49.999931,116.739983 50.066284,119.890945 49.983440,123.037987 
	C49.875462,127.139801 47.165966,129.186310 43.426918,127.737671 
	C27.981451,121.753578 15.765156,111.814331 8.130002,97.015236 
	C5.047703,91.040878 3.335638,84.359581 1.000000,78.000000 
z"/>
<path fill="#FFFFFF" opacity="1.000000" stroke="none" 
	d="
M1.000000,78.468658 
	C3.335638,84.359581 5.047703,91.040878 8.130002,97.015236 
	C15.765156,111.814331 27.981451,121.753578 43.426918,127.737671 
	C47.165966,129.186310 49.875462,127.139801 49.983440,123.037987 
	C50.066284,119.890945 49.999931,116.739983 49.999931,113.563911 
	C46.080742,113.371819 42.345047,113.347832 38.646378,112.965591 
	C34.397930,112.526535 31.238808,110.455208 28.984901,106.588051 
	C26.142515,101.711205 22.784481,97.134888 19.762735,92.599762 
	C23.285816,91.771469 26.451586,93.508743 30.537884,99.033241 
	C35.402420,105.609886 39.792084,107.246231 47.102959,104.898048 
	C48.238693,104.533257 49.312008,103.310745 49.956638,102.215553 
	C51.389736,99.780785 52.532887,97.175354 53.795990,94.635941 
	C50.009342,93.764442 46.070061,93.146057 42.320404,91.938728 
	C32.557789,88.795303 25.218384,78.303947 24.958075,68.015007 
	C24.777481,60.876888 25.080318,54.020245 29.902716,48.101738 
	C30.793795,47.008118 31.302017,44.786797 30.821070,43.533295 
	C28.820417,38.318947 30.322849,33.718704 32.733482,28.340279 
	C37.462662,30.571564 41.937569,32.985561 46.651943,34.765190 
	C48.670048,35.527004 51.186710,34.999176 53.476940,35.003372 
	C61.122185,35.017376 68.856926,34.322529 76.373657,35.304985 
	C79.940727,35.771214 82.560463,35.226387 85.461754,33.877052 
	C89.338120,32.074234 93.228462,30.301487 97.239250,28.457699 
	C99.757454,33.619690 101.029060,38.211987 99.281715,43.456577 
	C98.770927,44.989681 99.506203,47.440430 100.505859,48.897240 
	C111.599663,65.064316 103.566116,93.462990 77.482780,94.024086 
	C77.036697,94.033676 76.595032,94.248245 75.564781,94.524384 
	C82.551704,101.901352 79.571251,110.813828 79.911568,119.125473 
	C80.295967,128.513687 81.108208,129.467178 89.696304,125.994072 
	C111.332085,117.244354 123.706573,100.883110 128.620636,78.128746 
	C129.000000,94.967606 129.000000,111.935211 129.000000,128.951416 
	C86.447083,128.951416 43.894100,128.951416 1.000000,128.951416 
	C1.000000,112.313988 1.000000,95.625656 1.000000,78.468658 
z"/>
<path fill="#FFFFFF" opacity="1.000000" stroke="none" 
	d="
M129.000000,54.531342 
	C126.613075,48.491772 125.122849,41.457409 121.670845,35.574112 
	C111.374176,18.025341 96.713730,6.232151 75.891327,2.894292 
	C62.954266,0.820464 50.349266,1.717270 38.729271,7.260477 
	C21.024118,15.706545 8.458702,29.239712 3.022457,48.588478 
	C2.457497,50.599297 2.173427,52.689030 1.379514,54.871075 
	C1.000000,37.033421 1.000000,19.066841 1.000000,1.050130 
	C43.553978,1.050130 86.108025,1.050130 129.000000,1.050130 
	C129.000000,18.686127 129.000000,36.374405 129.000000,54.531342 
z"/>
</svg>