<svg version="1.1" id="Layer_1" xmlns="http://www.w3.org/2000/svg" xmlns:xlink="http://www.w3.org/1999/xlink" x="0px" y="0px"
	 width="100%" viewBox="0 0 225 225" enable-background="new 0 0 225 225" xml:space="preserve">
<path fill="#00D95F" opacity="1.000000" stroke="none" 
	d="
M1.000000,225.000000 
	C1.000000,150.406296 1.000000,75.812576 1.000000,1.000000 
	C75.354088,1.000000 149.708389,1.000000 224.531723,1.468657 
	C224.974228,76.239609 224.947693,150.541901 224.460678,224.888824 
	C149.666794,224.955658 75.333397,224.977829 1.000000,225.000000 
M58.127373,109.432106 
	C59.981216,117.129349 61.908352,124.810150 63.641064,132.534561 
	C64.116974,134.656174 64.558968,137.037476 64.077316,139.077927 
	C62.043991,147.691986 59.655987,156.222321 57.218830,165.461304 
	C66.156151,163.126602 74.371986,161.176300 82.454437,158.776703 
	C85.893372,157.755707 88.683426,158.186157 91.963943,159.501144 
	C112.719376,167.820969 132.311249,165.372833 149.498093,151.023102 
	C166.173187,137.100647 172.764145,118.718369 168.347870,97.376747 
	C162.414810,68.705215 136.567566,50.220390 107.775764,53.133736 
	C79.934746,55.950878 58.775902,79.545418 58.127373,109.432106 
z"/>
<path fill="#4AE07F" opacity="1.000000" stroke="none" 
	d="
M224.921173,224.844193 
	C224.947693,150.541901 224.974228,76.239609 225.000381,1.468657 
	C225.333328,2.500000 225.957321,3.999812 225.958298,5.500027 
	C226.005920,78.999992 226.000000,152.500000 225.480560,225.711029 
	C224.947784,225.229431 224.934479,225.036804 224.921173,224.844193 
z"/>
<path fill="#41DF7B" opacity="1.000000" stroke="none" 
	d="
M224.460678,224.888824 
	C224.934479,225.036804 224.947784,225.229431 224.980560,225.711029 
	C150.333328,226.000000 75.666664,226.000000 1.000000,225.500000 
	C75.333397,224.977829 149.666794,224.955658 224.460678,224.888824 
z"/>
<path fill="#F9FEFB" opacity="1.000000" stroke="none" 
	d="
M58.126141,108.966125 
	C58.775902,79.545418 79.934746,55.950878 107.775764,53.133736 
	C136.567566,50.220390 162.414810,68.705215 168.347870,97.376747 
	C172.764145,118.718369 166.173187,137.100647 149.498093,151.023102 
	C132.311249,165.372833 112.719376,167.820969 91.963943,159.501144 
	C88.683426,158.186157 85.893372,157.755707 82.454437,158.776703 
	C74.371986,161.176300 66.156151,163.126602 57.218830,165.461304 
	C59.655987,156.222321 62.043991,147.691986 64.077316,139.077927 
	C64.558968,137.037476 64.116974,134.656174 63.641064,132.534561 
	C61.908352,124.810150 59.981216,117.129349 58.126141,108.966125 
M73.715485,128.811600 
	C76.438828,132.264297 76.551620,135.905106 75.039955,139.974579 
	C73.877258,143.104614 73.353439,146.471985 72.388977,150.365814 
	C76.421989,149.379135 79.719688,148.884659 82.777924,147.746658 
	C86.773651,146.259811 90.053658,146.685135 93.935265,148.729233 
	C103.710106,153.876740 114.247688,154.662537 124.957390,152.024658 
	C147.931168,146.366089 162.649399,122.790855 157.791702,99.571060 
	C152.994736,76.641434 130.541672,60.721405 107.823387,64.141731 
	C77.247810,68.745003 60.793175,99.246017 73.715485,128.811600 
z"/>
<path fill="#02D95F" opacity="1.000000" stroke="none" 
	d="
M73.504608,128.479492 
	C60.793175,99.246017 77.247810,68.745003 107.823387,64.141731 
	C130.541672,60.721405 152.994736,76.641434 157.791702,99.571060 
	C162.649399,122.790855 147.931168,146.366089 124.957390,152.024658 
	C114.247688,154.662537 103.710106,153.876740 93.935265,148.729233 
	C90.053658,146.685135 86.773651,146.259811 82.777924,147.746658 
	C79.719688,148.884659 76.421989,149.379135 72.388977,150.365814 
	C73.353439,146.471985 73.877258,143.104614 75.039955,139.974579 
	C76.551620,135.905106 76.438828,132.264297 73.504608,128.479492 
M87.106621,93.045174 
	C87.808830,96.909546 87.686279,101.181076 89.357803,104.566925 
	C96.146111,118.317360 106.985939,127.788864 121.736328,132.300949 
	C124.793480,133.236115 128.368713,133.264526 131.564728,132.781509 
	C136.865524,131.980423 142.724579,125.045998 140.539490,122.150223 
	C138.031464,118.826485 133.906479,116.394287 130.023407,114.538185 
	C126.775803,112.985825 124.474869,115.632866 122.980957,118.497948 
	C121.611359,121.124596 119.574677,121.742378 117.307861,119.935005 
	C112.425835,116.042488 107.603729,112.060181 102.964508,107.884216 
	C100.776306,105.914528 100.236221,103.627609 102.753868,101.002602 
	C103.986725,99.717178 104.728340,97.423386 104.721870,95.589394 
	C104.703987,90.519295 100.056358,83.472099 96.674393,83.418800 
	C90.929451,83.328247 88.973228,87.761101 87.106621,93.045174 
z"/>
<path fill="#FAFEFB" opacity="1.000000" stroke="none" 
	d="
M87.182014,92.639297 
	C88.973228,87.761101 90.929451,83.328247 96.674393,83.418800 
	C100.056358,83.472099 104.703987,90.519295 104.721870,95.589394 
	C104.728340,97.423386 103.986725,99.717178 102.753868,101.002602 
	C100.236221,103.627609 100.776306,105.914528 102.964508,107.884216 
	C107.603729,112.060181 112.425835,116.042488 117.307861,119.935005 
	C119.574677,121.742378 121.611359,121.124596 122.980957,118.497948 
	C124.474869,115.632866 126.775803,112.985825 130.023407,114.538185 
	C133.906479,116.394287 138.031464,118.826485 140.539490,122.150223 
	C142.724579,125.045998 136.865524,131.980423 131.564728,132.781509 
	C128.368713,133.264526 124.793480,133.236115 121.736328,132.300949 
	C106.985939,127.788864 96.146111,118.317360 89.357803,104.566925 
	C87.686279,101.181076 87.808830,96.909546 87.182014,92.639297 
z"/>
</svg>