<svg version="1.1" id="Layer_1" xmlns="http://www.w3.org/2000/svg" xmlns:xlink="http://www.w3.org/1999/xlink" x="0px" y="0px"
	 width="100%" viewBox="0 0 225 225" enable-background="new 0 0 225 225" xml:space="preserve">
<path fill="#4BBAE8" opacity="1.000000" stroke="none" 
	d="
M226.000000,101.000000 
	C226.000000,109.354233 226.000000,117.708466 225.676926,126.751633 
	C225.047134,128.901062 224.706482,130.355347 224.438644,131.822937 
	C215.397018,181.364227 179.243622,216.830887 129.617935,224.872757 
	C128.383484,225.072784 127.204735,225.616562 126.000000,226.000000 
	C117.645767,226.000000 109.291534,226.000000 100.248352,225.676941 
	C98.260231,225.079987 96.966454,224.776901 95.661140,224.536362 
	C46.587814,215.493576 12.298775,181.654785 2.717583,132.878555 
	C2.451792,131.525452 1.586007,130.290207 1.000001,129.000000 
	C1.000000,118.979103 1.000000,108.958214 1.347167,98.304718 
	C2.087893,96.238060 2.596205,94.824638 2.858369,93.366951 
	C11.183758,47.075970 47.485016,10.986711 93.970078,2.756140 
	C96.019455,2.393281 97.991783,1.595300 100.000000,1.000000 
	C108.354233,1.000000 116.708466,1.000000 125.765709,1.320180 
	C126.953323,1.750277 127.432884,1.895991 127.923248,1.965026 
	C177.932816,9.005500 215.534775,45.251862 224.406525,94.933449 
	C224.772888,96.985054 225.461517,98.979126 226.000000,101.000000 
M27.229923,64.801865 
	C15.951630,85.215103 12.047959,106.888596 15.838248,129.965118 
	C24.839439,184.767319 77.566902,221.229538 132.748001,210.733002 
	C186.663895,200.477127 222.261215,146.207428 210.310699,92.485214 
	C201.248856,51.748711 169.473633,22.185862 127.439110,15.383580 
	C88.560997,9.092091 48.565266,28.637068 27.229923,64.801865 
z"/>
<path fill="#FDFEFF" opacity="1.000000" stroke="none" 
	d="
M126.468658,226.000000 
	C127.204735,225.616562 128.383484,225.072784 129.617935,224.872757 
	C179.243622,216.830887 215.397018,181.364227 224.438644,131.822937 
	C224.706482,130.355347 225.047134,128.901062 225.676926,127.220284 
	C226.000000,159.927292 226.000000,192.854599 226.000000,226.000000 
	C192.979431,226.000000 159.958374,226.000000 126.468658,226.000000 
z"/>
<path fill="#FDFEFF" opacity="1.000000" stroke="none" 
	d="
M226.000000,100.531342 
	C225.461517,98.979126 224.772888,96.985054 224.406525,94.933449 
	C215.534775,45.251862 177.932816,9.005500 127.923248,1.965026 
	C127.432884,1.895991 126.953323,1.750277 126.234360,1.320180 
	C159.260269,1.000000 192.520523,1.000000 226.000000,1.000000 
	C226.000000,34.020573 226.000000,67.041626 226.000000,100.531342 
z"/>
<path fill="#FDFEFF" opacity="1.000000" stroke="none" 
	d="
M99.531342,1.000000 
	C97.991783,1.595300 96.019455,2.393281 93.970078,2.756140 
	C47.485016,10.986711 11.183758,47.075970 2.858369,93.366951 
	C2.596205,94.824638 2.087893,96.238060 1.347167,97.836060 
	C1.000000,65.738991 1.000000,33.477978 1.000000,1.000000 
	C33.687241,1.000000 66.374962,1.000000 99.531342,1.000000 
z"/>
<path fill="#FDFEFF" opacity="1.000000" stroke="none" 
	d="
M1.000001,129.468658 
	C1.586007,130.290207 2.451792,131.525452 2.717583,132.878555 
	C12.298775,181.654785 46.587814,215.493576 95.661140,224.536362 
	C96.966454,224.776901 98.260231,225.079987 99.779694,225.676941 
	C67.073814,226.000000 34.147633,226.000000 1.000000,226.000000 
	C1.000000,193.979446 1.000000,161.958374 1.000001,129.468658 
z"/>
<path fill="#FDFEFF" opacity="1.000000" stroke="none" 
	d="
M27.417383,64.486053 
	C48.565266,28.637068 88.560997,9.092091 127.439110,15.383580 
	C169.473633,22.185862 201.248856,51.748711 210.310699,92.485214 
	C222.261215,146.207428 186.663895,200.477127 132.748001,210.733002 
	C77.566902,221.229538 24.839439,184.767319 15.838248,129.965118 
	C12.047959,106.888596 15.951630,85.215103 27.417383,64.486053 
M67.500366,69.038918 
	C62.836319,69.039131 58.172207,69.023758 53.508240,69.043045 
	C45.639572,69.075592 44.019432,70.631348 44.014168,78.299133 
	C43.997475,102.619034 43.995674,126.938957 44.015373,151.258865 
	C44.021545,158.878815 45.787075,160.662750 53.475060,160.667236 
	C93.952705,160.690857 134.430374,160.687851 174.908035,160.668945 
	C182.235870,160.665512 184.119247,158.786758 184.125397,151.531998 
	C184.146011,127.212090 184.142441,102.892159 184.128021,78.572250 
	C184.123260,70.541916 182.541901,68.987343 174.441666,68.989685 
	C139.127853,68.999886 103.814034,69.021507 67.500366,69.038918 
z"/>
<path fill="#50BCE9" opacity="1.000000" stroke="none" 
	d="
M68.000290,69.038948 
	C103.814034,69.021507 139.127853,68.999886 174.441666,68.989685 
	C182.541901,68.987343 184.123260,70.541916 184.128021,78.572250 
	C184.142441,102.892159 184.146011,127.212090 184.125397,151.531998 
	C184.119247,158.786758 182.235870,160.665512 174.908035,160.668945 
	C134.430374,160.687851 93.952705,160.690857 53.475060,160.667236 
	C45.787075,160.662750 44.021545,158.878815 44.015373,151.258865 
	C43.995674,126.938957 43.997475,102.619034 44.014168,78.299133 
	C44.019432,70.631348 45.639572,69.075592 53.508240,69.043045 
	C58.172207,69.023758 62.836319,69.039131 68.000290,69.038948 
M63.311386,76.441597 
	C62.557800,76.635384 61.804211,76.829178 60.586731,77.142258 
	C61.529148,78.187622 62.080418,79.000191 62.814068,79.583298 
	C78.587532,92.120094 94.424713,104.577377 110.124596,117.205399 
	C112.478973,119.099121 113.933868,118.761124 116.105881,117.060585 
	C132.232788,104.434258 148.446442,91.918617 164.654877,79.396736 
	C165.647141,78.630157 166.826935,78.106339 167.919464,77.469574 
	C167.589691,77.121666 167.259933,76.773766 166.930161,76.425858 
	C132.672104,76.425858 98.414062,76.425858 63.311386,76.441597 
M145.044434,135.445557 
	C139.394501,131.339447 133.568054,127.450180 128.159439,123.047615 
	C124.802795,120.315361 122.460197,120.486473 119.198135,123.223404 
	C113.059029,128.374237 112.725456,128.366257 106.724823,123.131363 
	C103.705490,120.497337 101.631737,120.731384 98.606941,123.021805 
	C86.012978,132.558151 73.239632,141.857483 60.551640,151.270096 
	C59.851612,151.789429 59.327675,152.546112 58.278595,153.664978 
	C95.484253,153.664978 131.916779,153.664978 168.349319,153.664978 
	C168.492020,153.353500 168.634735,153.042007 168.777451,152.730530 
	C161.059113,147.110641 153.340790,141.490753 145.044434,135.445557 
M138.719803,108.190147 
	C135.778748,110.514137 132.837708,112.838127 129.428116,115.532349 
	C145.460266,127.179001 160.858093,138.364838 176.679321,149.858261 
	C176.679321,125.829193 176.679321,102.717041 176.679321,78.760925 
	C163.731033,88.806412 151.511063,98.286858 138.719803,108.190147 
M60.732422,86.744957 
	C57.799492,84.449051 54.866562,82.153145 51.279881,79.345474 
	C51.279881,103.136414 51.279881,125.777771 51.279881,149.501465 
	C66.853653,137.985931 81.696205,127.011063 97.084122,115.632942 
	C84.678658,105.787712 72.973694,96.498413 60.732422,86.744957 
z"/>
<path fill="#FBFDFE" opacity="1.000000" stroke="none" 
	d="
M63.733700,76.433731 
	C98.414062,76.425858 132.672104,76.425858 166.930161,76.425858 
	C167.259933,76.773766 167.589691,77.121666 167.919464,77.469574 
	C166.826935,78.106339 165.647141,78.630157 164.654877,79.396736 
	C148.446442,91.918617 132.232788,104.434258 116.105881,117.060585 
	C113.933868,118.761124 112.478973,119.099121 110.124596,117.205399 
	C94.424713,104.577377 78.587532,92.120094 62.814068,79.583298 
	C62.080418,79.000191 61.529148,78.187622 60.586731,77.142258 
	C61.804211,76.829178 62.557800,76.635384 63.733700,76.433731 
z"/>
<path fill="#FBFEFF" opacity="1.000000" stroke="none" 
	d="
M145.333435,135.658203 
	C153.340790,141.490753 161.059113,147.110641 168.777451,152.730530 
	C168.634735,153.042007 168.492020,153.353500 168.349319,153.664978 
	C131.916779,153.664978 95.484253,153.664978 58.278595,153.664978 
	C59.327675,152.546112 59.851612,151.789429 60.551640,151.270096 
	C73.239632,141.857483 86.012978,132.558151 98.606941,123.021805 
	C101.631737,120.731384 103.705490,120.497337 106.724823,123.131363 
	C112.725456,128.366257 113.059029,128.374237 119.198135,123.223404 
	C122.460197,120.486473 124.802795,120.315361 128.159439,123.047615 
	C133.568054,127.450180 139.394501,131.339447 145.333435,135.658203 
z"/>
<path fill="#FDFEFF" opacity="1.000000" stroke="none" 
	d="
M139.005447,107.978729 
	C151.511063,98.286858 163.731033,88.806412 176.679321,78.760925 
	C176.679321,102.717041 176.679321,125.829193 176.679321,149.858261 
	C160.858093,138.364838 145.460266,127.179001 129.428116,115.532349 
	C132.837708,112.838127 135.778748,110.514137 139.005447,107.978729 
z"/>
<path fill="#FDFEFF" opacity="1.000000" stroke="none" 
	d="
M61.000572,86.977036 
	C72.973694,96.498413 84.678658,105.787712 97.084122,115.632942 
	C81.696205,127.011063 66.853653,137.985931 51.279881,149.501465 
	C51.279881,125.777771 51.279881,103.136414 51.279881,79.345474 
	C54.866562,82.153145 57.799492,84.449051 61.000572,86.977036 
z"/>
</svg>