<svg version="1.1" id="Layer_1" xmlns="http://www.w3.org/2000/svg" xmlns:xlink="http://www.w3.org/1999/xlink" x="0px" y="0px"
	 width="100%" viewBox="0 0 512 512" enable-background="new 0 0 512 512" xml:space="preserve">
<path fill="#0077B7" opacity="1.000000" stroke="none" 
	d="
M0.999997,479.000000 
	C1.000000,331.309265 1.000000,183.618515 1.352976,35.354370 
	C2.140304,33.938515 2.678019,33.132877 2.993167,32.247971 
	C6.491241,22.425678 12.247286,14.180481 21.076122,8.613179 
	C26.018909,5.496350 31.668747,3.500786 37.000000,1.000000 
	C183.357407,1.000000 329.714813,1.000000 476.675476,1.354557 
	C488.874725,4.677607 498.589569,10.620988 505.089508,20.777620 
	C508.310791,25.811069 510.399109,31.569544 513.000000,37.000000 
	C513.000000,183.357407 513.000000,329.714813 512.645447,476.675476 
	C509.322418,488.874695 503.379028,498.589569 493.222412,505.089478 
	C488.188965,508.310730 482.430450,510.399078 477.000000,513.000000 
	C330.642578,513.000000 184.285187,513.000000 37.324509,512.645447 
	C23.790142,508.743011 13.264946,502.042847 6.936563,489.744263 
	C5.065219,486.107544 2.984671,482.578430 0.999997,479.000000 
M459.000000,399.500000 
	C458.338257,361.318329 460.526947,323.098450 457.081726,284.947906 
	C455.771484,270.438843 453.211182,256.339661 448.326996,242.570114 
	C442.717072,226.754623 433.981720,213.403519 420.625397,203.043610 
	C408.425568,193.580750 394.503021,188.926559 379.420807,186.977600 
	C363.914703,184.973877 348.310577,184.918549 333.147491,188.261322 
	C315.361481,192.182327 299.365356,200.080917 288.098328,215.359680 
	C286.151031,218.000305 283.963165,220.463501 280.999786,224.095291 
	C280.999786,215.655777 281.058746,208.574829 280.982727,201.495361 
	C280.910400,194.762344 276.181915,190.009521 269.651428,190.004990 
	C249.823471,189.991272 229.995514,189.985397 210.167587,190.007767 
	C202.952850,190.015900 198.006012,195.048065 198.005264,202.363251 
	C197.996933,282.508148 198.066391,362.653229 197.874039,442.797668 
	C197.858673,449.204620 204.540161,456.282623 211.357941,456.138977 
	C230.344345,455.738831 249.344696,456.006989 268.339539,455.996674 
	C276.259918,455.992371 280.996704,451.173584 280.997742,443.129944 
	C281.002716,404.973633 281.118561,366.816772 280.943695,328.661255 
	C280.870117,312.612549 282.640686,297.141815 289.712280,282.385101 
	C293.968231,273.503937 299.568787,266.382843 308.378784,261.949280 
	C317.400879,257.408997 326.762909,256.227661 336.849762,257.858856 
	C347.359375,259.558411 355.908234,263.711792 362.199982,272.510834 
	C369.800323,283.139862 372.704956,295.236328 372.891418,307.888275 
	C373.259644,332.876099 373.000000,357.873108 373.000000,382.866333 
	C373.000000,402.027802 373.145325,421.190796 372.938141,440.350037 
	C372.835907,449.806641 379.117310,456.501709 388.452026,456.185059 
	C406.925720,455.558319 425.445862,455.636475 443.926392,456.153137 
	C453.181244,456.411896 459.278046,450.067749 459.077301,440.987305 
	C458.778992,427.497559 459.000000,413.996338 459.000000,399.500000 
M159.000000,406.500000 
	C159.000000,384.848175 159.000000,363.196320 159.000000,341.544495 
	C159.000000,295.909027 158.913254,250.273270 159.069473,204.638336 
	C159.102737,194.918503 151.971634,189.740250 145.064560,189.874420 
	C126.251198,190.239853 107.426056,189.993073 88.605598,190.003479 
	C81.160049,190.007584 76.003242,195.192719 76.002823,202.676926 
	C75.998299,282.622253 75.996735,362.567596 76.005005,442.512939 
	C76.005844,450.652466 81.333305,455.987305 89.452332,455.994690 
	C107.773125,456.011414 126.093948,456.011353 144.414749,455.995209 
	C153.664108,455.987061 158.978546,450.691681 158.995132,441.476776 
	C159.015503,430.151215 159.000000,418.825592 159.000000,406.500000 
M161.949677,142.295105 
	C162.325485,141.398224 162.571304,140.415970 163.096085,139.616928 
	C176.576843,119.090385 172.695709,90.954720 155.467529,74.023979 
	C147.019012,65.721313 137.003922,60.765282 125.067703,58.752640 
	C111.464844,56.458969 98.916977,59.197048 88.225761,66.672012 
	C70.319351,79.191605 60.785854,96.467522 63.958733,119.244339 
	C65.514870,130.415253 69.930344,140.086014 77.729187,148.245193 
	C86.576279,157.501053 96.997643,163.249664 109.917915,165.230591 
	C122.375961,167.140671 133.344543,164.208115 144.117569,158.507736 
	C151.275711,154.720093 156.700699,149.185471 161.949677,142.295105 
z"/>
<path fill="#FFFFFF" opacity="1.000000" stroke="none" 
	d="
M513.000000,36.531342 
	C510.399109,31.569544 508.310791,25.811069 505.089508,20.777620 
	C498.589569,10.620988 488.874725,4.677607 477.139374,1.354557 
	C488.926605,1.000000 500.853180,1.000000 513.000000,1.000000 
	C513.000000,12.686640 513.000000,24.374662 513.000000,36.531342 
z"/>
<path fill="#FFFFFF" opacity="1.000000" stroke="none" 
	d="
M477.468658,513.000000 
	C482.430450,510.399078 488.188965,508.310730 493.222412,505.089478 
	C503.379028,498.589569 509.322418,488.874695 512.645447,477.139374 
	C513.000000,488.926605 513.000000,500.853180 513.000000,513.000000 
	C501.313354,513.000000 489.625336,513.000000 477.468658,513.000000 
z"/>
<path fill="#FFFFFF" opacity="1.000000" stroke="none" 
	d="
M36.531342,1.000000 
	C31.668747,3.500786 26.018909,5.496350 21.076122,8.613179 
	C12.247286,14.180481 6.491241,22.425678 2.993167,32.247971 
	C2.678019,33.132877 2.140304,33.938515 1.352976,34.890484 
	C1.000000,23.737982 1.000000,12.475963 1.000000,1.000000 
	C12.686692,1.000000 24.374687,1.000000 36.531342,1.000000 
z"/>
<path fill="#FFFFFF" opacity="1.000000" stroke="none" 
	d="
M0.999997,479.468658 
	C2.984671,482.578430 5.065219,486.107544 6.936563,489.744263 
	C13.264946,502.042847 23.790142,508.743011 36.860626,512.645447 
	C25.075508,513.000000 13.151016,513.000000 1.000000,513.000000 
	C1.000000,501.980133 1.000000,490.958740 0.999997,479.468658 
z"/>
<path fill="#FFFFFF" opacity="1.000000" stroke="none" 
	d="
M459.000000,400.000000 
	C459.000000,413.996338 458.778992,427.497559 459.077301,440.987305 
	C459.278046,450.067749 453.181244,456.411896 443.926392,456.153137 
	C425.445862,455.636475 406.925720,455.558319 388.452026,456.185059 
	C379.117310,456.501709 372.835907,449.806641 372.938141,440.350037 
	C373.145325,421.190796 373.000000,402.027802 373.000000,382.866333 
	C373.000000,357.873108 373.259644,332.876099 372.891418,307.888275 
	C372.704956,295.236328 369.800323,283.139862 362.199982,272.510834 
	C355.908234,263.711792 347.359375,259.558411 336.849762,257.858856 
	C326.762909,256.227661 317.400879,257.408997 308.378784,261.949280 
	C299.568787,266.382843 293.968231,273.503937 289.712280,282.385101 
	C282.640686,297.141815 280.870117,312.612549 280.943695,328.661255 
	C281.118561,366.816772 281.002716,404.973633 280.997742,443.129944 
	C280.996704,451.173584 276.259918,455.992371 268.339539,455.996674 
	C249.344696,456.006989 230.344345,455.738831 211.357941,456.138977 
	C204.540161,456.282623 197.858673,449.204620 197.874039,442.797668 
	C198.066391,362.653229 197.996933,282.508148 198.005264,202.363251 
	C198.006012,195.048065 202.952850,190.015900 210.167587,190.007767 
	C229.995514,189.985397 249.823471,189.991272 269.651428,190.004990 
	C276.181915,190.009521 280.910400,194.762344 280.982727,201.495361 
	C281.058746,208.574829 280.999786,215.655777 280.999786,224.095291 
	C283.963165,220.463501 286.151031,218.000305 288.098328,215.359680 
	C299.365356,200.080917 315.361481,192.182327 333.147491,188.261322 
	C348.310577,184.918549 363.914703,184.973877 379.420807,186.977600 
	C394.503021,188.926559 408.425568,193.580750 420.625397,203.043610 
	C433.981720,213.403519 442.717072,226.754623 448.326996,242.570114 
	C453.211182,256.339661 455.771484,270.438843 457.081726,284.947906 
	C460.526947,323.098450 458.338257,361.318329 459.000000,400.000000 
z"/>
<path fill="#FFFFFF" opacity="1.000000" stroke="none" 
	d="
M159.000000,407.000000 
	C159.000000,418.825592 159.015503,430.151215 158.995132,441.476776 
	C158.978546,450.691681 153.664108,455.987061 144.414749,455.995209 
	C126.093948,456.011353 107.773125,456.011414 89.452332,455.994690 
	C81.333305,455.987305 76.005844,450.652466 76.005005,442.512939 
	C75.996735,362.567596 75.998299,282.622253 76.002823,202.676926 
	C76.003242,195.192719 81.160049,190.007584 88.605598,190.003479 
	C107.426056,189.993073 126.251198,190.239853 145.064560,189.874420 
	C151.971634,189.740250 159.102737,194.918503 159.069473,204.638336 
	C158.913254,250.273270 159.000000,295.909027 159.000000,341.544495 
	C159.000000,363.196320 159.000000,384.848175 159.000000,407.000000 
z"/>
<path fill="#FFFFFF" opacity="1.000000" stroke="none" 
	d="
M161.757294,142.611801 
	C156.700699,149.185471 151.275711,154.720093 144.117569,158.507736 
	C133.344543,164.208115 122.375961,167.140671 109.917915,165.230591 
	C96.997643,163.249664 86.576279,157.501053 77.729187,148.245193 
	C69.930344,140.086014 65.514870,130.415253 63.958733,119.244339 
	C60.785854,96.467522 70.319351,79.191605 88.225761,66.672012 
	C98.916977,59.197048 111.464844,56.458969 125.067703,58.752640 
	C137.003922,60.765282 147.019012,65.721313 155.467529,74.023979 
	C172.695709,90.954720 176.576843,119.090385 163.096085,139.616928 
	C162.571304,140.415970 162.325485,141.398224 161.757294,142.611801 
z"/>
</svg>